<svg id="visual" viewBox="0 0 900 600" width="900" height="600" xmlns="http://www.w3.org/2000/svg" xmlns:xlink="http://www.w3.org/1999/xlink" version="1.1"><g stroke-width="1" stroke-linejoin="bevel"><path d="M438.4 291.7L477.6 329.3L453.6 255.7Z" fill="#3b265f" stroke="#3b265f"></path><path d="M477.6 329.3L513.8 228.7L453.6 255.7Z" fill="#4f3777" stroke="#4f3777"></path><path d="M477.6 329.3L528.8 344.3L513.8 228.7Z" fill="#594083" stroke="#594083"></path><path d="M415.4 368L454.4 372.3L477.6 329.3Z" fill="#3b265f" stroke="#3b265f"></path><path d="M477.6 329.3L454.4 372.3L528.8 344.3Z" fill="#311d54" stroke="#311d54"></path><path d="M438.4 291.7L415.4 368L477.6 329.3Z" fill="#4f3777" stroke="#4f3777"></path><path d="M517.6 437.7L552.8 363L528.8 344.3Z" fill="#4f3777" stroke="#4f3777"></path><path d="M528.8 344.3L622.1 246.7L513.8 228.7Z" fill="#2d194e" stroke="#2d194e"></path><path d="M363.2 303.7L365.2 310.3L438.4 291.7Z" fill="#3b265f" stroke="#3b265f"></path><path d="M438.4 291.7L365.2 310.3L415.4 368Z" fill="#36215a" stroke="#36215a"></path><path d="M453.6 255.7L363.2 303.7L438.4 291.7Z" fill="#543c7d" stroke="#543c7d"></path><path d="M555.8 182L501.6 160L513.8 228.7Z" fill="#402a65" stroke="#402a65"></path><path d="M513.8 228.7L501.6 160L453.6 255.7Z" fill="#402a65" stroke="#402a65"></path><path d="M453.6 255.7L405.4 169.3L363.2 303.7Z" fill="#4a3371" stroke="#4a3371"></path><path d="M622.1 246.7L555.8 182L513.8 228.7Z" fill="#4a3371" stroke="#4a3371"></path><path d="M501.6 160L412.4 170L453.6 255.7Z" fill="#4f3777" stroke="#4f3777"></path><path d="M458.6 123.3L405.4 169.3L412.4 170Z" fill="#4a3371" stroke="#4a3371"></path><path d="M412.4 170L405.4 169.3L453.6 255.7Z" fill="#2d194e" stroke="#2d194e"></path><path d="M552.8 363L622.1 246.7L528.8 344.3Z" fill="#4f3777" stroke="#4f3777"></path><path d="M415.4 368L460.6 438L454.4 372.3Z" fill="#543c7d" stroke="#543c7d"></path><path d="M454.4 372.3L517.6 437.7L528.8 344.3Z" fill="#2d194e" stroke="#2d194e"></path><path d="M384.4 437.7L460.6 438L415.4 368Z" fill="#543c7d" stroke="#543c7d"></path><path d="M460.6 438L517.6 437.7L454.4 372.3Z" fill="#402a65" stroke="#402a65"></path><path d="M552.8 363L656.1 302.3L622.1 246.7Z" fill="#311d54" stroke="#311d54"></path><path d="M476.6 78.7L458.6 123.3L501.6 160Z" fill="#3b265f" stroke="#3b265f"></path><path d="M501.6 160L458.6 123.3L412.4 170Z" fill="#402a65" stroke="#402a65"></path><path d="M275.9 366.3L335.2 377L365.2 310.3Z" fill="#402a65" stroke="#402a65"></path><path d="M365.2 310.3L335.2 377L415.4 368Z" fill="#4f3777" stroke="#4f3777"></path><path d="M275.9 366.3L365.2 310.3L363.2 303.7Z" fill="#281549" stroke="#281549"></path><path d="M622.1 246.7L606.1 174L555.8 182Z" fill="#311d54" stroke="#311d54"></path><path d="M555.8 182L583.8 139.3L501.6 160Z" fill="#4a3371" stroke="#4a3371"></path><path d="M626.1 397L656.1 302.3L552.8 363Z" fill="#3b265f" stroke="#3b265f"></path><path d="M652.3 186L617.1 159.3L606.1 174Z" fill="#36215a" stroke="#36215a"></path><path d="M335.2 377L384.4 437.7L415.4 368Z" fill="#36215a" stroke="#36215a"></path><path d="M346.2 146.3L325.2 195L405.4 169.3Z" fill="#281549" stroke="#281549"></path><path d="M405.4 169.3L325.2 195L363.2 303.7Z" fill="#2d194e" stroke="#2d194e"></path><path d="M606.1 174L583.8 139.3L555.8 182Z" fill="#594083" stroke="#594083"></path><path d="M517.6 437.7L626.1 397L552.8 363Z" fill="#4f3777" stroke="#4f3777"></path><path d="M652.3 186L606.1 174L622.1 246.7Z" fill="#36215a" stroke="#36215a"></path><path d="M606.1 174L617.1 159.3L583.8 139.3Z" fill="#402a65" stroke="#402a65"></path><path d="M460.6 438L525.8 475.7L517.6 437.7Z" fill="#594083" stroke="#594083"></path><path d="M517.6 437.7L525.8 475.7L626.1 397Z" fill="#402a65" stroke="#402a65"></path><path d="M476.6 525.3L525.8 475.7L460.6 438Z" fill="#402a65" stroke="#402a65"></path><path d="M458.6 123.3L346.2 146.3L405.4 169.3Z" fill="#4f3777" stroke="#4f3777"></path><path d="M718.3 267.7L652.3 186L622.1 246.7Z" fill="#3b265f" stroke="#3b265f"></path><path d="M583.8 139.3L476.6 78.7L501.6 160Z" fill="#452e6b" stroke="#452e6b"></path><path d="M458.6 123.3L446.4 37.7L346.2 146.3Z" fill="#2d194e" stroke="#2d194e"></path><path d="M346.2 146.3L291.9 181L325.2 195Z" fill="#402a65" stroke="#402a65"></path><path d="M249.9 302.7L275.9 366.3L363.2 303.7Z" fill="#2d194e" stroke="#2d194e"></path><path d="M249.9 302.7L363.2 303.7L325.2 195Z" fill="#3b265f" stroke="#3b265f"></path><path d="M335.2 377L321.2 450.7L384.4 437.7Z" fill="#4a3371" stroke="#4a3371"></path><path d="M290.9 433L321.2 450.7L335.2 377Z" fill="#281549" stroke="#281549"></path><path d="M384.4 437.7L476.6 525.3L460.6 438Z" fill="#281549" stroke="#281549"></path><path d="M626.1 397L707.3 307.3L656.1 302.3Z" fill="#452e6b" stroke="#452e6b"></path><path d="M656.1 302.3L718.3 267.7L622.1 246.7Z" fill="#543c7d" stroke="#543c7d"></path><path d="M291.9 181L249.9 302.7L325.2 195Z" fill="#402a65" stroke="#402a65"></path><path d="M377.4 540.3L476.6 525.3L384.4 437.7Z" fill="#281549" stroke="#281549"></path><path d="M525.8 475.7L653.1 450.7L626.1 397Z" fill="#36215a" stroke="#36215a"></path><path d="M569.8 536.3L653.1 450.7L525.8 475.7Z" fill="#452e6b" stroke="#452e6b"></path><path d="M626.1 397L678.3 429L707.3 307.3Z" fill="#2d194e" stroke="#2d194e"></path><path d="M275.9 366.3L290.9 433L335.2 377Z" fill="#402a65" stroke="#402a65"></path><path d="M203.7 412L290.9 433L275.9 366.3Z" fill="#543c7d" stroke="#543c7d"></path><path d="M707.3 307.3L718.3 267.7L656.1 302.3Z" fill="#281549" stroke="#281549"></path><path d="M653.1 450.7L678.3 429L626.1 397Z" fill="#4a3371" stroke="#4a3371"></path><path d="M707.3 307.3L771.5 307.3L718.3 267.7Z" fill="#2d194e" stroke="#2d194e"></path><path d="M491.6 0L446.4 37.7L476.6 78.7Z" fill="#4f3777" stroke="#4f3777"></path><path d="M476.6 78.7L446.4 37.7L458.6 123.3Z" fill="#36215a" stroke="#36215a"></path><path d="M273.9 93.3L240.7 168.3L291.9 181Z" fill="#594083" stroke="#594083"></path><path d="M581.8 56.7L476.6 78.7L583.8 139.3Z" fill="#2d194e" stroke="#2d194e"></path><path d="M600.1 30.7L581.8 56.7L719.3 68.7Z" fill="#36215a" stroke="#36215a"></path><path d="M617.1 159.3L581.8 56.7L583.8 139.3Z" fill="#4f3777" stroke="#4f3777"></path><path d="M716.3 167.3L617.1 159.3L652.3 186Z" fill="#594083" stroke="#594083"></path><path d="M476.6 525.3L569.8 536.3L525.8 475.7Z" fill="#2d194e" stroke="#2d194e"></path><path d="M653.1 450.7L660.3 495.3L678.3 429Z" fill="#4a3371" stroke="#4a3371"></path><path d="M718.3 267.7L716.3 167.3L652.3 186Z" fill="#281549" stroke="#281549"></path><path d="M273.9 93.3L291.9 181L346.2 146.3Z" fill="#2d194e" stroke="#2d194e"></path><path d="M291.9 181L202.7 274.7L249.9 302.7Z" fill="#4a3371" stroke="#4a3371"></path><path d="M305.9 496.3L313.9 498.7L321.2 450.7Z" fill="#311d54" stroke="#311d54"></path><path d="M321.2 450.7L313.9 498.7L384.4 437.7Z" fill="#452e6b" stroke="#452e6b"></path><path d="M211.7 527.3L305.9 496.3L290.9 433Z" fill="#4f3777" stroke="#4f3777"></path><path d="M290.9 433L305.9 496.3L321.2 450.7Z" fill="#543c7d" stroke="#543c7d"></path><path d="M313.9 498.7L377.4 540.3L384.4 437.7Z" fill="#3b265f" stroke="#3b265f"></path><path d="M596.1 600L606.1 571.3L569.8 536.3Z" fill="#4a3371" stroke="#4a3371"></path><path d="M307.2 559.3L377.4 540.3L313.9 498.7Z" fill="#4f3777" stroke="#4f3777"></path><path d="M569.8 536.3L660.3 495.3L653.1 450.7Z" fill="#4f3777" stroke="#4f3777"></path><path d="M240.7 168.3L202.7 274.7L291.9 181Z" fill="#452e6b" stroke="#452e6b"></path><path d="M249.9 302.7L195.7 335.3L275.9 366.3Z" fill="#4a3371" stroke="#4a3371"></path><path d="M269.9 81.7L273.9 93.3L331.2 30.7Z" fill="#594083" stroke="#594083"></path><path d="M719.3 68.7L581.8 56.7L617.1 159.3Z" fill="#543c7d" stroke="#543c7d"></path><path d="M556.8 0L491.6 0L476.6 78.7Z" fill="#311d54" stroke="#311d54"></path><path d="M202.7 274.7L195.7 335.3L249.9 302.7Z" fill="#452e6b" stroke="#452e6b"></path><path d="M556.8 0L476.6 78.7L581.8 56.7Z" fill="#4a3371" stroke="#4a3371"></path><path d="M331.2 30.7L273.9 93.3L346.2 146.3Z" fill="#402a65" stroke="#402a65"></path><path d="M777.5 427L707.3 307.3L678.3 429Z" fill="#4a3371" stroke="#4a3371"></path><path d="M777.5 427L771.5 307.3L707.3 307.3Z" fill="#452e6b" stroke="#452e6b"></path><path d="M718.3 267.7L799.5 221L716.3 167.3Z" fill="#4f3777" stroke="#4f3777"></path><path d="M331.2 30.7L346.2 146.3L446.4 37.7Z" fill="#4f3777" stroke="#4f3777"></path><path d="M273.9 93.3L169.5 134.3L240.7 168.3Z" fill="#3b265f" stroke="#3b265f"></path><path d="M150.5 298.7L195.7 335.3L202.7 274.7Z" fill="#281549" stroke="#281549"></path><path d="M771.5 307.3L775.5 285.7L718.3 267.7Z" fill="#4a3371" stroke="#4a3371"></path><path d="M491.6 0L409.4 0L446.4 37.7Z" fill="#281549" stroke="#281549"></path><path d="M409.4 0L331.2 30.7L446.4 37.7Z" fill="#594083" stroke="#594083"></path><path d="M600.1 30.7L556.8 0L581.8 56.7Z" fill="#311d54" stroke="#311d54"></path><path d="M195.7 335.3L203.7 412L275.9 366.3Z" fill="#3b265f" stroke="#3b265f"></path><path d="M538.8 600L569.8 536.3L476.6 525.3Z" fill="#452e6b" stroke="#452e6b"></path><path d="M569.8 536.3L606.1 571.3L660.3 495.3Z" fill="#36215a" stroke="#36215a"></path><path d="M409.4 0L359.2 0L331.2 30.7Z" fill="#311d54" stroke="#311d54"></path><path d="M331.2 30.7L261.9 0L269.9 81.7Z" fill="#311d54" stroke="#311d54"></path><path d="M413.4 600L476.6 525.3L377.4 540.3Z" fill="#402a65" stroke="#402a65"></path><path d="M413.4 600L473.6 600L476.6 525.3Z" fill="#36215a" stroke="#36215a"></path><path d="M762.5 555.3L731.3 472.7L660.3 495.3Z" fill="#452e6b" stroke="#452e6b"></path><path d="M660.3 495.3L731.3 472.7L678.3 429Z" fill="#543c7d" stroke="#543c7d"></path><path d="M799.8 199L757.5 141.3L716.3 167.3Z" fill="#311d54" stroke="#311d54"></path><path d="M716.3 167.3L719.3 68.7L617.1 159.3Z" fill="#2d194e" stroke="#2d194e"></path><path d="M600.1 30.7L619.1 0L556.8 0Z" fill="#402a65" stroke="#402a65"></path><path d="M473.6 600L538.8 600L476.6 525.3Z" fill="#452e6b" stroke="#452e6b"></path><path d="M370.2 600L413.4 600L377.4 540.3Z" fill="#2d194e" stroke="#2d194e"></path><path d="M307.2 559.3L313.9 498.7L305.9 496.3Z" fill="#594083" stroke="#594083"></path><path d="M195.7 335.3L168.5 360.3L203.7 412Z" fill="#452e6b" stroke="#452e6b"></path><path d="M150.5 298.7L168.5 360.3L195.7 335.3Z" fill="#4a3371" stroke="#4a3371"></path><path d="M174.7 179L202.7 274.7L240.7 168.3Z" fill="#281549" stroke="#281549"></path><path d="M801.8 312.3L797.8 256.7L775.5 285.7Z" fill="#4f3777" stroke="#4f3777"></path><path d="M775.5 285.7L797.8 256.7L718.3 267.7Z" fill="#36215a" stroke="#36215a"></path><path d="M801.8 312.3L775.5 285.7L771.5 307.3Z" fill="#4f3777" stroke="#4f3777"></path><path d="M719.3 68.7L619.1 0L600.1 30.7Z" fill="#311d54" stroke="#311d54"></path><path d="M211.7 527.3L307.2 559.3L305.9 496.3Z" fill="#543c7d" stroke="#543c7d"></path><path d="M777.5 427L801.8 312.3L771.5 307.3Z" fill="#311d54" stroke="#311d54"></path><path d="M169.5 134.3L174.7 179L240.7 168.3Z" fill="#2d194e" stroke="#2d194e"></path><path d="M757.5 141.3L719.3 68.7L716.3 167.3Z" fill="#36215a" stroke="#36215a"></path><path d="M900 245.7L799.5 221L797.8 256.7Z" fill="#402a65" stroke="#402a65"></path><path d="M797.8 256.7L799.5 221L718.3 267.7Z" fill="#281549" stroke="#281549"></path><path d="M793.5 39.7L726.3 0L719.3 68.7Z" fill="#311d54" stroke="#311d54"></path><path d="M731.3 472.7L777.5 427L678.3 429Z" fill="#452e6b" stroke="#452e6b"></path><path d="M126.5 229L150.5 298.7L202.7 274.7Z" fill="#452e6b" stroke="#452e6b"></path><path d="M203.7 412L188.7 442.7L290.9 433Z" fill="#2d194e" stroke="#2d194e"></path><path d="M118.5 423L188.7 442.7L203.7 412Z" fill="#311d54" stroke="#311d54"></path><path d="M118.5 423L203.7 412L168.5 360.3Z" fill="#2d194e" stroke="#2d194e"></path><path d="M307.2 559.3L370.2 600L377.4 540.3Z" fill="#543c7d" stroke="#543c7d"></path><path d="M832.8 107.3L799.8 199L900 157.3Z" fill="#3b265f" stroke="#3b265f"></path><path d="M799.5 221L799.8 199L716.3 167.3Z" fill="#4a3371" stroke="#4a3371"></path><path d="M538.8 600L596.1 600L569.8 536.3Z" fill="#402a65" stroke="#402a65"></path><path d="M726.5 600L762.5 555.3L660.3 495.3Z" fill="#594083" stroke="#594083"></path><path d="M269.9 81.7L169.5 134.3L273.9 93.3Z" fill="#311d54" stroke="#311d54"></path><path d="M174.7 179L126.5 229L202.7 274.7Z" fill="#2d194e" stroke="#2d194e"></path><path d="M172.7 50.7L169.5 134.3L269.9 81.7Z" fill="#36215a" stroke="#36215a"></path><path d="M762.5 555.3L794.5 454.7L731.3 472.7Z" fill="#3b265f" stroke="#3b265f"></path><path d="M731.3 472.7L794.5 454.7L777.5 427Z" fill="#311d54" stroke="#311d54"></path><path d="M777.5 427L837.8 395L801.8 312.3Z" fill="#311d54" stroke="#311d54"></path><path d="M217.7 600L304.9 600L307.2 559.3Z" fill="#452e6b" stroke="#452e6b"></path><path d="M307.2 559.3L304.9 600L370.2 600Z" fill="#594083" stroke="#594083"></path><path d="M58.2 191L126.5 229L174.7 179Z" fill="#4a3371" stroke="#4a3371"></path><path d="M63.2 397L118.5 423L168.5 360.3Z" fill="#3b265f" stroke="#3b265f"></path><path d="M142.5 497.3L211.7 527.3L188.7 442.7Z" fill="#36215a" stroke="#36215a"></path><path d="M188.7 442.7L211.7 527.3L290.9 433Z" fill="#311d54" stroke="#311d54"></path><path d="M359.2 0L261.9 0L331.2 30.7Z" fill="#543c7d" stroke="#543c7d"></path><path d="M794.5 454.7L837.8 395L777.5 427Z" fill="#402a65" stroke="#402a65"></path><path d="M801.8 312.3L900 304.3L797.8 256.7Z" fill="#281549" stroke="#281549"></path><path d="M793.5 39.7L719.3 68.7L757.5 141.3Z" fill="#594083" stroke="#594083"></path><path d="M719.3 68.7L726.3 0L619.1 0Z" fill="#2d194e" stroke="#2d194e"></path><path d="M63.2 397L168.5 360.3L150.5 298.7Z" fill="#452e6b" stroke="#452e6b"></path><path d="M204.7 0L172.7 50.7L269.9 81.7Z" fill="#2d194e" stroke="#2d194e"></path><path d="M169.5 134.3L58.2 191L174.7 179Z" fill="#594083" stroke="#594083"></path><path d="M726.5 600L660.3 495.3L606.1 571.3Z" fill="#4f3777" stroke="#4f3777"></path><path d="M794.5 454.7L852.8 489.7L837.8 395Z" fill="#543c7d" stroke="#543c7d"></path><path d="M799.8 199L832.8 107.3L757.5 141.3Z" fill="#4a3371" stroke="#4a3371"></path><path d="M900 245.7L799.8 199L799.5 221Z" fill="#543c7d" stroke="#543c7d"></path><path d="M118.5 423L142.5 497.3L188.7 442.7Z" fill="#311d54" stroke="#311d54"></path><path d="M211.7 527.3L217.7 600L307.2 559.3Z" fill="#4f3777" stroke="#4f3777"></path><path d="M596.1 600L726.5 600L606.1 571.3Z" fill="#594083" stroke="#594083"></path><path d="M261.9 0L204.7 0L269.9 81.7Z" fill="#3b265f" stroke="#3b265f"></path><path d="M726.5 600L729.3 600L762.5 555.3Z" fill="#543c7d" stroke="#543c7d"></path><path d="M832.8 107.3L793.5 39.7L757.5 141.3Z" fill="#4a3371" stroke="#4a3371"></path><path d="M112.5 600L217.7 600L211.7 527.3Z" fill="#4a3371" stroke="#4a3371"></path><path d="M841.8 0L779.5 0L793.5 39.7Z" fill="#594083" stroke="#594083"></path><path d="M793.5 39.7L779.5 0L726.3 0Z" fill="#3b265f" stroke="#3b265f"></path><path d="M67.2 446.7L103.5 471.7L118.5 423Z" fill="#452e6b" stroke="#452e6b"></path><path d="M118.5 423L103.5 471.7L142.5 497.3Z" fill="#4f3777" stroke="#4f3777"></path><path d="M142.5 497.3L112.5 600L211.7 527.3Z" fill="#594083" stroke="#594083"></path><path d="M900 389L900 304.3L837.8 395Z" fill="#36215a" stroke="#36215a"></path><path d="M837.8 395L900 304.3L801.8 312.3Z" fill="#2d194e" stroke="#2d194e"></path><path d="M900 304.3L900 245.7L797.8 256.7Z" fill="#594083" stroke="#594083"></path><path d="M853.8 571.3L852.8 489.7L762.5 555.3Z" fill="#311d54" stroke="#311d54"></path><path d="M762.5 555.3L852.8 489.7L794.5 454.7Z" fill="#281549" stroke="#281549"></path><path d="M121.5 0L120.5 53.7L172.7 50.7Z" fill="#594083" stroke="#594083"></path><path d="M172.7 50.7L120.5 53.7L169.5 134.3Z" fill="#543c7d" stroke="#543c7d"></path><path d="M34.2 332.3L63.2 397L150.5 298.7Z" fill="#4a3371" stroke="#4a3371"></path><path d="M46.2 237.7L150.5 298.7L126.5 229Z" fill="#452e6b" stroke="#452e6b"></path><path d="M852.8 489.7L900 389L837.8 395Z" fill="#3b265f" stroke="#3b265f"></path><path d="M36.2 133.3L58.2 191L169.5 134.3Z" fill="#543c7d" stroke="#543c7d"></path><path d="M900 245.7L900 175L799.8 199Z" fill="#4a3371" stroke="#4a3371"></path><path d="M832.8 107.3L846.8 32.7L793.5 39.7Z" fill="#311d54" stroke="#311d54"></path><path d="M58.2 191L46.2 237.7L126.5 229Z" fill="#543c7d" stroke="#543c7d"></path><path d="M900 175L900 157.3L799.8 199Z" fill="#543c7d" stroke="#543c7d"></path><path d="M0 484.7L67.2 446.7L63.2 397Z" fill="#4a3371" stroke="#4a3371"></path><path d="M63.2 397L67.2 446.7L118.5 423Z" fill="#2d194e" stroke="#2d194e"></path><path d="M103.5 471.7L93.2 506.3L142.5 497.3Z" fill="#594083" stroke="#594083"></path><path d="M67.2 446.7L93.2 506.3L103.5 471.7Z" fill="#594083" stroke="#594083"></path><path d="M729.3 600L796.8 600L762.5 555.3Z" fill="#281549" stroke="#281549"></path><path d="M900 51.7L846.8 32.7L832.8 107.3Z" fill="#311d54" stroke="#311d54"></path><path d="M46.2 237.7L34.2 332.3L150.5 298.7Z" fill="#594083" stroke="#594083"></path><path d="M204.7 0L121.5 0L172.7 50.7Z" fill="#594083" stroke="#594083"></path><path d="M48.2 95.7L36.2 133.3L169.5 134.3Z" fill="#4f3777" stroke="#4f3777"></path><path d="M900 0L841.8 0L846.8 32.7Z" fill="#402a65" stroke="#402a65"></path><path d="M846.8 32.7L841.8 0L793.5 39.7Z" fill="#543c7d" stroke="#543c7d"></path><path d="M852.8 489.7L900 492.7L900 389Z" fill="#594083" stroke="#594083"></path><path d="M900 531.3L900 492.7L852.8 489.7Z" fill="#311d54" stroke="#311d54"></path><path d="M796.8 600L853.8 571.3L762.5 555.3Z" fill="#2d194e" stroke="#2d194e"></path><path d="M58.2 191L0 178L46.2 237.7Z" fill="#452e6b" stroke="#452e6b"></path><path d="M46.2 237.7L0 302.7L34.2 332.3Z" fill="#402a65" stroke="#402a65"></path><path d="M48.2 95.7L169.5 134.3L120.5 53.7Z" fill="#2d194e" stroke="#2d194e"></path><path d="M88.2 0L48.2 95.7L120.5 53.7Z" fill="#311d54" stroke="#311d54"></path><path d="M0 178L0 302.7L46.2 237.7Z" fill="#3b265f" stroke="#3b265f"></path><path d="M34.2 332.3L0 364L63.2 397Z" fill="#4a3371" stroke="#4a3371"></path><path d="M102.2 600L112.5 600L93.2 506.3Z" fill="#4f3777" stroke="#4f3777"></path><path d="M0 302.7L0 311.3L34.2 332.3Z" fill="#543c7d" stroke="#543c7d"></path><path d="M102.2 600L93.2 506.3L0 537.3Z" fill="#4a3371" stroke="#4a3371"></path><path d="M93.2 506.3L112.5 600L142.5 497.3Z" fill="#3b265f" stroke="#3b265f"></path><path d="M900 157.3L900 51.7L832.8 107.3Z" fill="#281549" stroke="#281549"></path><path d="M0 311.3L0 364L34.2 332.3Z" fill="#452e6b" stroke="#452e6b"></path><path d="M853.8 571.3L900 531.3L852.8 489.7Z" fill="#311d54" stroke="#311d54"></path><path d="M121.5 0L88.2 0L120.5 53.7Z" fill="#2d194e" stroke="#2d194e"></path><path d="M0 484.7L93.2 506.3L67.2 446.7Z" fill="#36215a" stroke="#36215a"></path><path d="M0 144.3L0 178L36.2 133.3Z" fill="#4a3371" stroke="#4a3371"></path><path d="M36.2 133.3L0 178L58.2 191Z" fill="#402a65" stroke="#402a65"></path><path d="M0 144.3L36.2 133.3L48.2 95.7Z" fill="#2d194e" stroke="#2d194e"></path><path d="M0 43.7L0 144.3L48.2 95.7Z" fill="#311d54" stroke="#311d54"></path><path d="M900 51.7L900 0L846.8 32.7Z" fill="#4a3371" stroke="#4a3371"></path><path d="M0 364L0 484.7L63.2 397Z" fill="#4f3777" stroke="#4f3777"></path><path d="M796.8 600L900 600L853.8 571.3Z" fill="#2d194e" stroke="#2d194e"></path><path d="M853.8 571.3L900 600L900 531.3Z" fill="#3b265f" stroke="#3b265f"></path><path d="M88.2 0L0 43.7L48.2 95.7Z" fill="#3b265f" stroke="#3b265f"></path><path d="M0 484.7L0 537.3L93.2 506.3Z" fill="#402a65" stroke="#402a65"></path><path d="M88.2 0L0 0L0 43.7Z" fill="#452e6b" stroke="#452e6b"></path><path d="M0 537.3L0 600L102.2 600Z" fill="#594083" stroke="#594083"></path></g></svg>